<svg width="20" height="22" viewBox="0 0 20 22" fill="none" xmlns="http://www.w3.org/2000/svg">
<path fill-rule="evenodd" clip-rule="evenodd" d="M11.7625 10.8226L15.875 6.37181C16.1125 6.1283 16.25 5.79009 16.25 5.4113C16.25 4.66724 15.6875 4.05847 15 4.05847C14.65 4.05847 14.3375 4.20728 14.1125 4.45079L10 8.91512L5.8875 4.45079C5.6625 4.20728 5.35 4.05847 5 4.05847C4.3125 4.05847 3.75 4.66724 3.75 5.4113C3.75 5.79009 3.8875 6.1283 4.1125 6.37181L8.2375 10.8226L4.125 15.2734C3.8875 15.5169 3.75 15.8551 3.75 16.2339C3.75 16.978 4.3125 17.5867 5 17.5867C5.35 17.5867 5.6625 17.4379 5.8875 17.1944L10 12.7301L14.1125 17.1809C14.3375 17.4379 14.65 17.5867 15 17.5867C15.6875 17.5867 16.25 16.978 16.25 16.2339C16.25 15.8551 16.1125 15.5169 15.8875 15.2734L11.7625 10.8226Z" fill="#677489"/>
</svg>
