<svg width="20" height="22" viewBox="0 0 20 22" fill="none" xmlns="http://www.w3.org/2000/svg">
<path fill-rule="evenodd" clip-rule="evenodd" d="M11.7625 10.8946L15.875 6.44381C16.1125 6.2003 16.25 5.8621 16.25 5.48331C16.25 4.73925 15.6875 4.13048 15 4.13048C14.65 4.13048 14.3375 4.27929 14.1125 4.5228L10 8.98713L5.8875 4.5228C5.6625 4.27929 5.35 4.13048 5 4.13048C4.3125 4.13048 3.75 4.73925 3.75 5.48331C3.75 5.8621 3.8875 6.2003 4.1125 6.44381L8.2375 10.8946L4.125 15.3454C3.8875 15.5889 3.75 15.9271 3.75 16.3059C3.75 17.05 4.3125 17.6588 5 17.6588C5.35 17.6588 5.6625 17.5099 5.8875 17.2664L10 12.8021L14.1125 17.2529C14.3375 17.5099 14.65 17.6588 15 17.6588C15.6875 17.6588 16.25 17.05 16.25 16.3059C16.25 15.9271 16.1125 15.5889 15.8875 15.3454L11.7625 10.8946Z" fill="#677489"/>
</svg>
