<svg width="16" height="16" viewBox="0 0 16 16" fill="none" xmlns="http://www.w3.org/2000/svg">
<g clip-path="url(#clip0_0_54)">
<path fill-rule="evenodd" clip-rule="evenodd" d="M11.99 6.98999C12.54 6.98999 12.99 6.53999 12.99 5.98999C12.99 5.43999 12.54 4.98999 11.99 4.98999C11.44 4.98999 10.99 5.43999 10.99 5.98999C10.99 6.53999 11.44 6.98999 11.99 6.98999ZM14.99 1.98999H0.990036C0.440036 1.98999 -0.00996399 2.43999 -0.00996399 2.98999V12.99C-0.00996399 13.54 0.440036 13.99 0.990036 13.99H14.99C15.54 13.99 15.99 13.54 15.99 12.99V2.98999C15.99 2.43999 15.54 1.98999 14.99 1.98999ZM13.99 10.99L8.99004 7.98999L7.99004 9.98999L4.99004 5.98999L1.99004 10.99V3.98999H13.99V10.99Z" fill="#495567"/>
</g>
<defs>
<clipPath id="clip0_0_54">
<rect width="16" height="16" fill="white"/>
</clipPath>
</defs>
</svg>
